<mxfile host="app.diagrams.net" modified="2023-09-29T17:54:20.068Z" agent="Mozilla/5.0 (Windows NT 10.0; Win64; x64) AppleWebKit/537.36 (KHTML, like Gecko) Chrome/117.0.0.0 Safari/537.36" version="22.0.0" etag="ZhLmr3-KOepG5yBxGydy" type="device">
  <diagram id="C5RBs43oDa-KdzZeNtuy" name="Page-1">
    <mxGraphModel dx="3033" dy="1590" grid="1" gridSize="10" guides="1" tooltips="1" connect="1" arrows="1" fold="1" page="1" pageScale="1" pageWidth="827" pageHeight="1169" math="0" shadow="0">
      <root>
        <mxCell id="WIyWlLk6GJQsqaUBKTNV-0" />
        <mxCell id="WIyWlLk6GJQsqaUBKTNV-1" parent="WIyWlLk6GJQsqaUBKTNV-0" />
        <mxCell id="jX_GD5bZqcwz75eiYxPs-16" value="Admin" style="shape=umlActor;verticalLabelPosition=bottom;verticalAlign=top;html=1;outlineConnect=0;" parent="WIyWlLk6GJQsqaUBKTNV-1" vertex="1">
          <mxGeometry x="100" y="90" width="30" height="60" as="geometry" />
        </mxCell>
        <mxCell id="jX_GD5bZqcwz75eiYxPs-17" value="" style="endArrow=none;dashed=1;html=1;dashPattern=1 3;strokeWidth=2;rounded=0;" parent="WIyWlLk6GJQsqaUBKTNV-1" edge="1">
          <mxGeometry width="50" height="50" relative="1" as="geometry">
            <mxPoint x="120" y="1450" as="sourcePoint" />
            <mxPoint x="120" y="180" as="targetPoint" />
          </mxGeometry>
        </mxCell>
        <mxCell id="jX_GD5bZqcwz75eiYxPs-19" value="Add product page" style="rounded=0;whiteSpace=wrap;html=1;" parent="WIyWlLk6GJQsqaUBKTNV-1" vertex="1">
          <mxGeometry x="340" y="90" width="120" height="60" as="geometry" />
        </mxCell>
        <mxCell id="jX_GD5bZqcwz75eiYxPs-20" value="" style="endArrow=none;dashed=1;html=1;dashPattern=1 3;strokeWidth=2;rounded=0;entryX=0.5;entryY=1;entryDx=0;entryDy=0;" parent="WIyWlLk6GJQsqaUBKTNV-1" target="jX_GD5bZqcwz75eiYxPs-19" edge="1">
          <mxGeometry width="50" height="50" relative="1" as="geometry">
            <mxPoint x="400" y="1440" as="sourcePoint" />
            <mxPoint x="350" y="250" as="targetPoint" />
          </mxGeometry>
        </mxCell>
        <mxCell id="jX_GD5bZqcwz75eiYxPs-21" value="AdminController" style="rounded=0;whiteSpace=wrap;html=1;" parent="WIyWlLk6GJQsqaUBKTNV-1" vertex="1">
          <mxGeometry x="620" y="90" width="120" height="60" as="geometry" />
        </mxCell>
        <mxCell id="jX_GD5bZqcwz75eiYxPs-22" value="" style="endArrow=none;dashed=1;html=1;dashPattern=1 3;strokeWidth=2;rounded=0;entryX=0.5;entryY=1;entryDx=0;entryDy=0;" parent="WIyWlLk6GJQsqaUBKTNV-1" source="jX_GD5bZqcwz75eiYxPs-43" target="jX_GD5bZqcwz75eiYxPs-21" edge="1">
          <mxGeometry width="50" height="50" relative="1" as="geometry">
            <mxPoint x="680" y="1160" as="sourcePoint" />
            <mxPoint x="410" y="160" as="targetPoint" />
          </mxGeometry>
        </mxCell>
        <mxCell id="jX_GD5bZqcwz75eiYxPs-23" value="ImageUploader" style="rounded=0;whiteSpace=wrap;html=1;" parent="WIyWlLk6GJQsqaUBKTNV-1" vertex="1">
          <mxGeometry x="880" y="90" width="120" height="60" as="geometry" />
        </mxCell>
        <mxCell id="jX_GD5bZqcwz75eiYxPs-24" value="pDAO: ProductDAO" style="rounded=0;whiteSpace=wrap;html=1;" parent="WIyWlLk6GJQsqaUBKTNV-1" vertex="1">
          <mxGeometry x="1121" y="90" width="120" height="60" as="geometry" />
        </mxCell>
        <mxCell id="jX_GD5bZqcwz75eiYxPs-25" value="" style="endArrow=none;dashed=1;html=1;dashPattern=1 3;strokeWidth=2;rounded=0;entryX=0.5;entryY=1;entryDx=0;entryDy=0;" parent="WIyWlLk6GJQsqaUBKTNV-1" source="jX_GD5bZqcwz75eiYxPs-49" target="jX_GD5bZqcwz75eiYxPs-23" edge="1">
          <mxGeometry width="50" height="50" relative="1" as="geometry">
            <mxPoint x="940" y="1160" as="sourcePoint" />
            <mxPoint x="690" y="160" as="targetPoint" />
          </mxGeometry>
        </mxCell>
        <mxCell id="jX_GD5bZqcwz75eiYxPs-26" value="" style="endArrow=none;dashed=1;html=1;dashPattern=1 3;strokeWidth=2;rounded=0;entryX=0.5;entryY=1;entryDx=0;entryDy=0;" parent="WIyWlLk6GJQsqaUBKTNV-1" source="jX_GD5bZqcwz75eiYxPs-62" target="jX_GD5bZqcwz75eiYxPs-24" edge="1">
          <mxGeometry width="50" height="50" relative="1" as="geometry">
            <mxPoint x="1180" y="1160" as="sourcePoint" />
            <mxPoint x="700" y="170" as="targetPoint" />
            <Array as="points" />
          </mxGeometry>
        </mxCell>
        <mxCell id="jX_GD5bZqcwz75eiYxPs-27" value="Converter" style="rounded=0;whiteSpace=wrap;html=1;" parent="WIyWlLk6GJQsqaUBKTNV-1" vertex="1">
          <mxGeometry x="1390" y="90" width="120" height="60" as="geometry" />
        </mxCell>
        <mxCell id="jX_GD5bZqcwz75eiYxPs-28" value="Cloud" style="ellipse;shape=cloud;whiteSpace=wrap;html=1;" parent="WIyWlLk6GJQsqaUBKTNV-1" vertex="1">
          <mxGeometry x="2020" y="80" width="120" height="80" as="geometry" />
        </mxCell>
        <mxCell id="jX_GD5bZqcwz75eiYxPs-29" value="DB" style="shape=cylinder3;whiteSpace=wrap;html=1;boundedLbl=1;backgroundOutline=1;size=15;" parent="WIyWlLk6GJQsqaUBKTNV-1" vertex="1">
          <mxGeometry x="2430" y="80" width="60" height="80" as="geometry" />
        </mxCell>
        <mxCell id="jX_GD5bZqcwz75eiYxPs-37" value="" style="endArrow=none;dashed=1;html=1;dashPattern=1 3;strokeWidth=2;rounded=0;entryX=0.55;entryY=0.95;entryDx=0;entryDy=0;entryPerimeter=0;" parent="WIyWlLk6GJQsqaUBKTNV-1" source="jX_GD5bZqcwz75eiYxPs-54" target="jX_GD5bZqcwz75eiYxPs-28" edge="1">
          <mxGeometry width="50" height="50" relative="1" as="geometry">
            <mxPoint x="1720" y="1130" as="sourcePoint" />
            <mxPoint x="1201" y="170" as="targetPoint" />
            <Array as="points" />
          </mxGeometry>
        </mxCell>
        <mxCell id="jX_GD5bZqcwz75eiYxPs-38" value="" style="endArrow=none;dashed=1;html=1;dashPattern=1 3;strokeWidth=2;rounded=0;entryX=0.5;entryY=1;entryDx=0;entryDy=0;entryPerimeter=0;" parent="WIyWlLk6GJQsqaUBKTNV-1" source="jX_GD5bZqcwz75eiYxPs-104" target="jX_GD5bZqcwz75eiYxPs-29" edge="1">
          <mxGeometry width="50" height="50" relative="1" as="geometry">
            <mxPoint x="2460" y="1152.6445978338068" as="sourcePoint" />
            <mxPoint x="1681" y="180" as="targetPoint" />
            <Array as="points" />
          </mxGeometry>
        </mxCell>
        <mxCell id="jX_GD5bZqcwz75eiYxPs-39" value="" style="endArrow=classic;html=1;rounded=0;" parent="WIyWlLk6GJQsqaUBKTNV-1" edge="1">
          <mxGeometry width="50" height="50" relative="1" as="geometry">
            <mxPoint x="120" y="210" as="sourcePoint" />
            <mxPoint x="400" y="210" as="targetPoint" />
          </mxGeometry>
        </mxCell>
        <mxCell id="jX_GD5bZqcwz75eiYxPs-40" value="1. Input product information" style="edgeLabel;html=1;align=center;verticalAlign=middle;resizable=0;points=[];" parent="jX_GD5bZqcwz75eiYxPs-39" vertex="1" connectable="0">
          <mxGeometry x="0.026" y="3" relative="1" as="geometry">
            <mxPoint y="3" as="offset" />
          </mxGeometry>
        </mxCell>
        <mxCell id="jX_GD5bZqcwz75eiYxPs-41" value="" style="endArrow=classic;html=1;rounded=0;" parent="WIyWlLk6GJQsqaUBKTNV-1" edge="1">
          <mxGeometry width="50" height="50" relative="1" as="geometry">
            <mxPoint x="400" y="230" as="sourcePoint" />
            <mxPoint x="680" y="230" as="targetPoint" />
          </mxGeometry>
        </mxCell>
        <mxCell id="jX_GD5bZqcwz75eiYxPs-42" value="2. doPost()" style="edgeLabel;html=1;align=center;verticalAlign=middle;resizable=0;points=[];" parent="jX_GD5bZqcwz75eiYxPs-41" vertex="1" connectable="0">
          <mxGeometry x="0.2519" y="-2" relative="1" as="geometry">
            <mxPoint x="-35" y="-2" as="offset" />
          </mxGeometry>
        </mxCell>
        <mxCell id="jX_GD5bZqcwz75eiYxPs-44" value="" style="endArrow=none;dashed=1;html=1;dashPattern=1 3;strokeWidth=2;rounded=0;entryX=0.5;entryY=1;entryDx=0;entryDy=0;" parent="WIyWlLk6GJQsqaUBKTNV-1" target="jX_GD5bZqcwz75eiYxPs-43" edge="1">
          <mxGeometry width="50" height="50" relative="1" as="geometry">
            <mxPoint x="680" y="1450" as="sourcePoint" />
            <mxPoint x="680" y="150" as="targetPoint" />
          </mxGeometry>
        </mxCell>
        <mxCell id="jX_GD5bZqcwz75eiYxPs-43" value="" style="rounded=0;whiteSpace=wrap;html=1;" parent="WIyWlLk6GJQsqaUBKTNV-1" vertex="1">
          <mxGeometry x="675" y="230" width="10" height="1160" as="geometry" />
        </mxCell>
        <mxCell id="jX_GD5bZqcwz75eiYxPs-45" value="" style="endArrow=classic;html=1;rounded=0;entryX=0.75;entryY=0;entryDx=0;entryDy=0;exitX=0.929;exitY=0.017;exitDx=0;exitDy=0;exitPerimeter=0;" parent="WIyWlLk6GJQsqaUBKTNV-1" source="jX_GD5bZqcwz75eiYxPs-43" target="jX_GD5bZqcwz75eiYxPs-46" edge="1">
          <mxGeometry width="50" height="50" relative="1" as="geometry">
            <mxPoint x="690" y="250" as="sourcePoint" />
            <mxPoint x="740" y="250" as="targetPoint" />
            <Array as="points">
              <mxPoint x="750" y="252" />
              <mxPoint x="750" y="320" />
            </Array>
          </mxGeometry>
        </mxCell>
        <mxCell id="jX_GD5bZqcwz75eiYxPs-47" value="3. updateProduct()" style="edgeLabel;html=1;align=center;verticalAlign=middle;resizable=0;points=[];" parent="jX_GD5bZqcwz75eiYxPs-45" vertex="1" connectable="0">
          <mxGeometry x="-0.0389" y="2" relative="1" as="geometry">
            <mxPoint as="offset" />
          </mxGeometry>
        </mxCell>
        <mxCell id="jX_GD5bZqcwz75eiYxPs-46" value="" style="rounded=0;whiteSpace=wrap;html=1;" parent="WIyWlLk6GJQsqaUBKTNV-1" vertex="1">
          <mxGeometry x="685" y="320" width="10" height="1070" as="geometry" />
        </mxCell>
        <mxCell id="jX_GD5bZqcwz75eiYxPs-48" value="" style="endArrow=classic;html=1;rounded=0;entryX=0;entryY=0;entryDx=0;entryDy=0;exitX=1.151;exitY=0.049;exitDx=0;exitDy=0;exitPerimeter=0;" parent="WIyWlLk6GJQsqaUBKTNV-1" source="jX_GD5bZqcwz75eiYxPs-46" target="jX_GD5bZqcwz75eiYxPs-49" edge="1">
          <mxGeometry width="50" height="50" relative="1" as="geometry">
            <mxPoint x="700" y="380" as="sourcePoint" />
            <mxPoint x="930" y="380" as="targetPoint" />
          </mxGeometry>
        </mxCell>
        <mxCell id="jX_GD5bZqcwz75eiYxPs-51" value="4. uploadImageToClound()" style="edgeLabel;html=1;align=center;verticalAlign=middle;resizable=0;points=[];" parent="jX_GD5bZqcwz75eiYxPs-48" vertex="1" connectable="0">
          <mxGeometry x="-0.1101" y="-1" relative="1" as="geometry">
            <mxPoint x="10" y="-1" as="offset" />
          </mxGeometry>
        </mxCell>
        <mxCell id="jX_GD5bZqcwz75eiYxPs-50" value="" style="endArrow=none;dashed=1;html=1;dashPattern=1 3;strokeWidth=2;rounded=0;entryX=0.5;entryY=1;entryDx=0;entryDy=0;" parent="WIyWlLk6GJQsqaUBKTNV-1" target="jX_GD5bZqcwz75eiYxPs-49" edge="1">
          <mxGeometry width="50" height="50" relative="1" as="geometry">
            <mxPoint x="940" y="1440" as="sourcePoint" />
            <mxPoint x="940" y="150" as="targetPoint" />
          </mxGeometry>
        </mxCell>
        <mxCell id="jX_GD5bZqcwz75eiYxPs-49" value="" style="rounded=0;whiteSpace=wrap;html=1;" parent="WIyWlLk6GJQsqaUBKTNV-1" vertex="1">
          <mxGeometry x="935" y="380" width="10" height="120" as="geometry" />
        </mxCell>
        <mxCell id="jX_GD5bZqcwz75eiYxPs-52" value="" style="endArrow=classic;html=1;rounded=0;exitX=0.94;exitY=0.324;exitDx=0;exitDy=0;exitPerimeter=0;entryX=0;entryY=0;entryDx=0;entryDy=0;" parent="WIyWlLk6GJQsqaUBKTNV-1" source="jX_GD5bZqcwz75eiYxPs-49" target="jX_GD5bZqcwz75eiYxPs-54" edge="1">
          <mxGeometry width="50" height="50" relative="1" as="geometry">
            <mxPoint x="969.9999999999998" y="420.00000000000006" as="sourcePoint" />
            <mxPoint x="2070" y="420" as="targetPoint" />
          </mxGeometry>
        </mxCell>
        <mxCell id="jX_GD5bZqcwz75eiYxPs-53" value="5. getResponseCode()" style="edgeLabel;html=1;align=center;verticalAlign=middle;resizable=0;points=[];" parent="jX_GD5bZqcwz75eiYxPs-52" vertex="1" connectable="0">
          <mxGeometry x="-0.1677" y="-2" relative="1" as="geometry">
            <mxPoint x="-352" y="-2" as="offset" />
          </mxGeometry>
        </mxCell>
        <mxCell id="jX_GD5bZqcwz75eiYxPs-55" value="" style="endArrow=none;dashed=1;html=1;dashPattern=1 3;strokeWidth=2;rounded=0;entryX=0.55;entryY=0.95;entryDx=0;entryDy=0;entryPerimeter=0;" parent="WIyWlLk6GJQsqaUBKTNV-1" target="jX_GD5bZqcwz75eiYxPs-54" edge="1">
          <mxGeometry width="50" height="50" relative="1" as="geometry">
            <mxPoint x="2085" y="1340" as="sourcePoint" />
            <mxPoint x="1720" y="156" as="targetPoint" />
            <Array as="points" />
          </mxGeometry>
        </mxCell>
        <mxCell id="jX_GD5bZqcwz75eiYxPs-54" value="" style="rounded=0;whiteSpace=wrap;html=1;" parent="WIyWlLk6GJQsqaUBKTNV-1" vertex="1">
          <mxGeometry x="2080" y="420" width="10" height="60" as="geometry" />
        </mxCell>
        <mxCell id="jX_GD5bZqcwz75eiYxPs-56" value="" style="endArrow=classic;html=1;rounded=0;dashed=1;entryX=0.885;entryY=0.838;entryDx=0;entryDy=0;entryPerimeter=0;exitX=0;exitY=1;exitDx=0;exitDy=0;" parent="WIyWlLk6GJQsqaUBKTNV-1" source="jX_GD5bZqcwz75eiYxPs-54" target="jX_GD5bZqcwz75eiYxPs-49" edge="1">
          <mxGeometry width="50" height="50" relative="1" as="geometry">
            <mxPoint x="1660" y="481" as="sourcePoint" />
            <mxPoint x="958.0213120404412" y="480" as="targetPoint" />
          </mxGeometry>
        </mxCell>
        <mxCell id="jX_GD5bZqcwz75eiYxPs-57" value="6. return result" style="edgeLabel;html=1;align=center;verticalAlign=middle;resizable=0;points=[];" parent="jX_GD5bZqcwz75eiYxPs-56" vertex="1" connectable="0">
          <mxGeometry x="0.0092" y="-2" relative="1" as="geometry">
            <mxPoint x="-456" as="offset" />
          </mxGeometry>
        </mxCell>
        <mxCell id="jX_GD5bZqcwz75eiYxPs-58" value="" style="endArrow=classic;html=1;rounded=0;exitX=0.101;exitY=0.956;exitDx=0;exitDy=0;exitPerimeter=0;dashed=1;" parent="WIyWlLk6GJQsqaUBKTNV-1" source="jX_GD5bZqcwz75eiYxPs-49" edge="1">
          <mxGeometry width="50" height="50" relative="1" as="geometry">
            <mxPoint x="830" y="560" as="sourcePoint" />
            <mxPoint x="700" y="495" as="targetPoint" />
          </mxGeometry>
        </mxCell>
        <mxCell id="jX_GD5bZqcwz75eiYxPs-59" value="7. return image URL" style="edgeLabel;html=1;align=center;verticalAlign=middle;resizable=0;points=[];" parent="jX_GD5bZqcwz75eiYxPs-58" vertex="1" connectable="0">
          <mxGeometry x="0.5594" y="1" relative="1" as="geometry">
            <mxPoint x="68" y="-6" as="offset" />
          </mxGeometry>
        </mxCell>
        <mxCell id="jX_GD5bZqcwz75eiYxPs-60" value="" style="endArrow=classic;html=1;rounded=0;entryX=0;entryY=0;entryDx=0;entryDy=0;" parent="WIyWlLk6GJQsqaUBKTNV-1" target="jX_GD5bZqcwz75eiYxPs-62" edge="1">
          <mxGeometry width="50" height="50" relative="1" as="geometry">
            <mxPoint x="700" y="560" as="sourcePoint" />
            <mxPoint x="1171.0389927455358" y="560" as="targetPoint" />
          </mxGeometry>
        </mxCell>
        <mxCell id="jX_GD5bZqcwz75eiYxPs-61" value="8. addProduct(pd)" style="edgeLabel;html=1;align=center;verticalAlign=middle;resizable=0;points=[];" parent="jX_GD5bZqcwz75eiYxPs-60" vertex="1" connectable="0">
          <mxGeometry x="0.1964" y="4" relative="1" as="geometry">
            <mxPoint x="-172" as="offset" />
          </mxGeometry>
        </mxCell>
        <mxCell id="jX_GD5bZqcwz75eiYxPs-63" value="" style="endArrow=none;dashed=1;html=1;dashPattern=1 3;strokeWidth=2;rounded=0;entryX=0.5;entryY=1;entryDx=0;entryDy=0;" parent="WIyWlLk6GJQsqaUBKTNV-1" target="jX_GD5bZqcwz75eiYxPs-62" edge="1">
          <mxGeometry width="50" height="50" relative="1" as="geometry">
            <mxPoint x="1180" y="1160" as="sourcePoint" />
            <mxPoint x="1181" y="150" as="targetPoint" />
            <Array as="points" />
          </mxGeometry>
        </mxCell>
        <mxCell id="jX_GD5bZqcwz75eiYxPs-62" value="" style="rounded=0;whiteSpace=wrap;html=1;" parent="WIyWlLk6GJQsqaUBKTNV-1" vertex="1">
          <mxGeometry x="1176.5" y="560" width="9" height="680" as="geometry" />
        </mxCell>
        <mxCell id="jX_GD5bZqcwz75eiYxPs-94" value="bDAO: BrandDAO" style="rounded=0;whiteSpace=wrap;html=1;" parent="WIyWlLk6GJQsqaUBKTNV-1" vertex="1">
          <mxGeometry x="1720" y="90" width="120" height="60" as="geometry" />
        </mxCell>
        <mxCell id="jX_GD5bZqcwz75eiYxPs-98" value="" style="endArrow=none;dashed=1;html=1;dashPattern=1 3;strokeWidth=2;rounded=0;entryX=0.5;entryY=1;entryDx=0;entryDy=0;" parent="WIyWlLk6GJQsqaUBKTNV-1" source="jX_GD5bZqcwz75eiYxPs-109" target="jX_GD5bZqcwz75eiYxPs-94" edge="1">
          <mxGeometry width="50" height="50" relative="1" as="geometry">
            <mxPoint x="1780" y="1160" as="sourcePoint" />
            <mxPoint x="2000" y="360" as="targetPoint" />
          </mxGeometry>
        </mxCell>
        <mxCell id="jX_GD5bZqcwz75eiYxPs-99" value="" style="endArrow=classic;html=1;rounded=0;entryX=0;entryY=0;entryDx=0;entryDy=0;exitX=1.5;exitY=0.22;exitDx=0;exitDy=0;exitPerimeter=0;" parent="WIyWlLk6GJQsqaUBKTNV-1" edge="1">
          <mxGeometry width="50" height="50" relative="1" as="geometry">
            <mxPoint x="1190" y="600.4000000000001" as="sourcePoint" />
            <mxPoint x="1775" y="600" as="targetPoint" />
          </mxGeometry>
        </mxCell>
        <mxCell id="jX_GD5bZqcwz75eiYxPs-100" value="9. isExistedBrandName()" style="edgeLabel;html=1;align=center;verticalAlign=middle;resizable=0;points=[];" parent="jX_GD5bZqcwz75eiYxPs-99" vertex="1" connectable="0">
          <mxGeometry x="-0.3322" y="-5" relative="1" as="geometry">
            <mxPoint x="-60" y="-5" as="offset" />
          </mxGeometry>
        </mxCell>
        <mxCell id="jX_GD5bZqcwz75eiYxPs-105" value="" style="endArrow=none;dashed=1;html=1;dashPattern=1 3;strokeWidth=2;rounded=0;entryX=0.5;entryY=1;entryDx=0;entryDy=0;entryPerimeter=0;" parent="WIyWlLk6GJQsqaUBKTNV-1" source="jX_GD5bZqcwz75eiYxPs-127" target="jX_GD5bZqcwz75eiYxPs-104" edge="1">
          <mxGeometry width="50" height="50" relative="1" as="geometry">
            <mxPoint x="2460" y="1152.6445978338068" as="sourcePoint" />
            <mxPoint x="2460" y="160" as="targetPoint" />
            <Array as="points" />
          </mxGeometry>
        </mxCell>
        <mxCell id="jX_GD5bZqcwz75eiYxPs-104" value="" style="rounded=0;whiteSpace=wrap;html=1;" parent="WIyWlLk6GJQsqaUBKTNV-1" vertex="1">
          <mxGeometry x="2455" y="751" width="10" height="30" as="geometry" />
        </mxCell>
        <mxCell id="jX_GD5bZqcwz75eiYxPs-110" value="" style="endArrow=none;dashed=1;html=1;dashPattern=1 3;strokeWidth=2;rounded=0;entryX=0.5;entryY=1;entryDx=0;entryDy=0;" parent="WIyWlLk6GJQsqaUBKTNV-1" source="jX_GD5bZqcwz75eiYxPs-124" target="jX_GD5bZqcwz75eiYxPs-109" edge="1">
          <mxGeometry width="50" height="50" relative="1" as="geometry">
            <mxPoint x="1780" y="1160" as="sourcePoint" />
            <mxPoint x="1780" y="150" as="targetPoint" />
          </mxGeometry>
        </mxCell>
        <mxCell id="jX_GD5bZqcwz75eiYxPs-109" value="" style="rounded=0;whiteSpace=wrap;html=1;" parent="WIyWlLk6GJQsqaUBKTNV-1" vertex="1">
          <mxGeometry x="1775" y="600" width="10" height="250" as="geometry" />
        </mxCell>
        <mxCell id="jX_GD5bZqcwz75eiYxPs-111" value="" style="endArrow=classic;html=1;rounded=0;exitX=1.001;exitY=0.076;exitDx=0;exitDy=0;exitPerimeter=0;entryX=0.905;entryY=0.296;entryDx=0;entryDy=0;entryPerimeter=0;" parent="WIyWlLk6GJQsqaUBKTNV-1" source="jX_GD5bZqcwz75eiYxPs-109" target="jX_GD5bZqcwz75eiYxPs-112" edge="1">
          <mxGeometry width="50" height="50" relative="1" as="geometry">
            <mxPoint x="1800" y="760" as="sourcePoint" />
            <mxPoint x="1800" y="832" as="targetPoint" />
            <Array as="points">
              <mxPoint x="1850" y="620" />
              <mxPoint x="1850" y="702" />
            </Array>
          </mxGeometry>
        </mxCell>
        <mxCell id="jX_GD5bZqcwz75eiYxPs-113" value="10. getBrandID()" style="edgeLabel;html=1;align=center;verticalAlign=middle;resizable=0;points=[];" parent="jX_GD5bZqcwz75eiYxPs-111" vertex="1" connectable="0">
          <mxGeometry x="0.1177" relative="1" as="geometry">
            <mxPoint as="offset" />
          </mxGeometry>
        </mxCell>
        <mxCell id="jX_GD5bZqcwz75eiYxPs-112" value="" style="rounded=0;whiteSpace=wrap;html=1;" parent="WIyWlLk6GJQsqaUBKTNV-1" vertex="1">
          <mxGeometry x="1785" y="640" width="10" height="210" as="geometry" />
        </mxCell>
        <mxCell id="jX_GD5bZqcwz75eiYxPs-114" value="" style="endArrow=classic;html=1;rounded=0;entryX=0;entryY=0;entryDx=0;entryDy=0;exitX=1.023;exitY=0.528;exitDx=0;exitDy=0;exitPerimeter=0;" parent="WIyWlLk6GJQsqaUBKTNV-1" source="jX_GD5bZqcwz75eiYxPs-112" target="jX_GD5bZqcwz75eiYxPs-104" edge="1">
          <mxGeometry width="50" height="50" relative="1" as="geometry">
            <mxPoint x="1800" y="880" as="sourcePoint" />
            <mxPoint x="2444.4756610576924" y="880" as="targetPoint" />
          </mxGeometry>
        </mxCell>
        <mxCell id="jX_GD5bZqcwz75eiYxPs-116" value="11. executeQuery()" style="edgeLabel;html=1;align=center;verticalAlign=middle;resizable=0;points=[];" parent="jX_GD5bZqcwz75eiYxPs-114" vertex="1" connectable="0">
          <mxGeometry x="-0.023" relative="1" as="geometry">
            <mxPoint x="-210" as="offset" />
          </mxGeometry>
        </mxCell>
        <mxCell id="jX_GD5bZqcwz75eiYxPs-115" value="" style="endArrow=classic;html=1;rounded=0;exitX=0;exitY=1;exitDx=0;exitDy=0;dashed=1;entryX=0.963;entryY=0.677;entryDx=0;entryDy=0;entryPerimeter=0;" parent="WIyWlLk6GJQsqaUBKTNV-1" source="jX_GD5bZqcwz75eiYxPs-104" target="jX_GD5bZqcwz75eiYxPs-112" edge="1">
          <mxGeometry width="50" height="50" relative="1" as="geometry">
            <mxPoint x="2220" y="940" as="sourcePoint" />
            <mxPoint x="1800" y="910" as="targetPoint" />
          </mxGeometry>
        </mxCell>
        <mxCell id="jX_GD5bZqcwz75eiYxPs-117" value="12 return result" style="edgeLabel;html=1;align=center;verticalAlign=middle;resizable=0;points=[];" parent="jX_GD5bZqcwz75eiYxPs-115" vertex="1" connectable="0">
          <mxGeometry x="-0.5869" y="2" relative="1" as="geometry">
            <mxPoint as="offset" />
          </mxGeometry>
        </mxCell>
        <mxCell id="jX_GD5bZqcwz75eiYxPs-118" value="" style="endArrow=classic;html=1;rounded=0;dashed=1;entryX=1.035;entryY=0.514;entryDx=0;entryDy=0;entryPerimeter=0;" parent="WIyWlLk6GJQsqaUBKTNV-1" edge="1">
          <mxGeometry width="50" height="50" relative="1" as="geometry">
            <mxPoint x="1770" y="843" as="sourcePoint" />
            <mxPoint x="1185.815" y="844.48" as="targetPoint" />
          </mxGeometry>
        </mxCell>
        <mxCell id="jX_GD5bZqcwz75eiYxPs-119" value="13. Brand is not exists" style="edgeLabel;html=1;align=center;verticalAlign=middle;resizable=0;points=[];" parent="jX_GD5bZqcwz75eiYxPs-118" vertex="1" connectable="0">
          <mxGeometry x="-0.1979" y="-1" relative="1" as="geometry">
            <mxPoint as="offset" />
          </mxGeometry>
        </mxCell>
        <mxCell id="jX_GD5bZqcwz75eiYxPs-122" value="" style="endArrow=classic;html=1;rounded=0;exitX=1.407;exitY=0.584;exitDx=0;exitDy=0;exitPerimeter=0;entryX=0;entryY=0;entryDx=0;entryDy=0;" parent="WIyWlLk6GJQsqaUBKTNV-1" edge="1">
          <mxGeometry width="50" height="50" relative="1" as="geometry">
            <mxPoint x="1189.163" y="922.8799999999999" as="sourcePoint" />
            <mxPoint x="1775" y="924.0000000000002" as="targetPoint" />
          </mxGeometry>
        </mxCell>
        <mxCell id="jX_GD5bZqcwz75eiYxPs-123" value="13.1 addBrand()" style="edgeLabel;html=1;align=center;verticalAlign=middle;resizable=0;points=[];" parent="jX_GD5bZqcwz75eiYxPs-122" vertex="1" connectable="0">
          <mxGeometry x="0.2313" y="-4" relative="1" as="geometry">
            <mxPoint x="-10" y="-4" as="offset" />
          </mxGeometry>
        </mxCell>
        <mxCell id="jX_GD5bZqcwz75eiYxPs-125" value="" style="endArrow=none;dashed=1;html=1;dashPattern=1 3;strokeWidth=2;rounded=0;entryX=0.5;entryY=1;entryDx=0;entryDy=0;" parent="WIyWlLk6GJQsqaUBKTNV-1" target="jX_GD5bZqcwz75eiYxPs-124" edge="1">
          <mxGeometry width="50" height="50" relative="1" as="geometry">
            <mxPoint x="1780" y="1353.280613111413" as="sourcePoint" />
            <mxPoint x="1780" y="990" as="targetPoint" />
          </mxGeometry>
        </mxCell>
        <mxCell id="jX_GD5bZqcwz75eiYxPs-124" value="" style="rounded=0;whiteSpace=wrap;html=1;" parent="WIyWlLk6GJQsqaUBKTNV-1" vertex="1">
          <mxGeometry x="1775" y="923" width="10" height="80" as="geometry" />
        </mxCell>
        <mxCell id="jX_GD5bZqcwz75eiYxPs-126" value="" style="endArrow=classic;html=1;rounded=0;exitX=1.032;exitY=0.383;exitDx=0;exitDy=0;exitPerimeter=0;entryX=0;entryY=0;entryDx=0;entryDy=0;" parent="WIyWlLk6GJQsqaUBKTNV-1" source="jX_GD5bZqcwz75eiYxPs-124" target="jX_GD5bZqcwz75eiYxPs-127" edge="1">
          <mxGeometry width="50" height="50" relative="1" as="geometry">
            <mxPoint x="1790" y="953" as="sourcePoint" />
            <mxPoint x="2450" y="953" as="targetPoint" />
          </mxGeometry>
        </mxCell>
        <mxCell id="jX_GD5bZqcwz75eiYxPs-129" value="13.2 executeUpdate()" style="edgeLabel;html=1;align=center;verticalAlign=middle;resizable=0;points=[];" parent="jX_GD5bZqcwz75eiYxPs-126" vertex="1" connectable="0">
          <mxGeometry x="-0.6644" y="3" relative="1" as="geometry">
            <mxPoint x="14" y="3" as="offset" />
          </mxGeometry>
        </mxCell>
        <mxCell id="jX_GD5bZqcwz75eiYxPs-128" value="" style="endArrow=none;dashed=1;html=1;dashPattern=1 3;strokeWidth=2;rounded=0;entryX=0.5;entryY=1;entryDx=0;entryDy=0;entryPerimeter=0;" parent="WIyWlLk6GJQsqaUBKTNV-1" source="jX_GD5bZqcwz75eiYxPs-142" target="jX_GD5bZqcwz75eiYxPs-127" edge="1">
          <mxGeometry width="50" height="50" relative="1" as="geometry">
            <mxPoint x="2460" y="1355.059230638587" as="sourcePoint" />
            <mxPoint x="2460" y="940" as="targetPoint" />
            <Array as="points" />
          </mxGeometry>
        </mxCell>
        <mxCell id="jX_GD5bZqcwz75eiYxPs-127" value="" style="rounded=0;whiteSpace=wrap;html=1;" parent="WIyWlLk6GJQsqaUBKTNV-1" vertex="1">
          <mxGeometry x="2454.7" y="953" width="10.3" height="40" as="geometry" />
        </mxCell>
        <mxCell id="jX_GD5bZqcwz75eiYxPs-130" value="" style="endArrow=classic;html=1;rounded=0;entryX=1.021;entryY=0.879;entryDx=0;entryDy=0;entryPerimeter=0;dashed=1;" parent="WIyWlLk6GJQsqaUBKTNV-1" target="jX_GD5bZqcwz75eiYxPs-124" edge="1">
          <mxGeometry width="50" height="50" relative="1" as="geometry">
            <mxPoint x="2450" y="993" as="sourcePoint" />
            <mxPoint x="1800" y="993" as="targetPoint" />
          </mxGeometry>
        </mxCell>
        <mxCell id="jX_GD5bZqcwz75eiYxPs-131" value="13.3 return result" style="edgeLabel;html=1;align=center;verticalAlign=middle;resizable=0;points=[];" parent="jX_GD5bZqcwz75eiYxPs-130" vertex="1" connectable="0">
          <mxGeometry x="0.6836" y="-3" relative="1" as="geometry">
            <mxPoint as="offset" />
          </mxGeometry>
        </mxCell>
        <mxCell id="jX_GD5bZqcwz75eiYxPs-135" value="Opt" style="shape=umlFrame;whiteSpace=wrap;html=1;pointerEvents=0;" parent="WIyWlLk6GJQsqaUBKTNV-1" vertex="1">
          <mxGeometry x="1100" y="805" width="1390" height="210" as="geometry" />
        </mxCell>
        <mxCell id="jX_GD5bZqcwz75eiYxPs-136" value="[Brand is not exist]" style="text;html=1;strokeColor=none;fillColor=none;align=center;verticalAlign=middle;whiteSpace=wrap;rounded=0;" parent="WIyWlLk6GJQsqaUBKTNV-1" vertex="1">
          <mxGeometry x="1194.5" y="811" width="120" height="30" as="geometry" />
        </mxCell>
        <mxCell id="jX_GD5bZqcwz75eiYxPs-141" value="" style="endArrow=classic;html=1;rounded=0;exitX=0.964;exitY=0.883;exitDx=0;exitDy=0;exitPerimeter=0;" parent="WIyWlLk6GJQsqaUBKTNV-1" source="jX_GD5bZqcwz75eiYxPs-62" edge="1">
          <mxGeometry width="50" height="50" relative="1" as="geometry">
            <mxPoint x="1194.5" y="1161" as="sourcePoint" />
            <mxPoint x="2460" y="1161" as="targetPoint" />
          </mxGeometry>
        </mxCell>
        <mxCell id="jX_GD5bZqcwz75eiYxPs-144" value="14. executeUpdate()" style="edgeLabel;html=1;align=center;verticalAlign=middle;resizable=0;points=[];" parent="jX_GD5bZqcwz75eiYxPs-141" vertex="1" connectable="0">
          <mxGeometry x="-0.8409" y="-3" relative="1" as="geometry">
            <mxPoint as="offset" />
          </mxGeometry>
        </mxCell>
        <mxCell id="jX_GD5bZqcwz75eiYxPs-143" value="" style="endArrow=none;dashed=1;html=1;dashPattern=1 3;strokeWidth=2;rounded=0;entryX=0.5;entryY=1;entryDx=0;entryDy=0;entryPerimeter=0;" parent="WIyWlLk6GJQsqaUBKTNV-1" target="jX_GD5bZqcwz75eiYxPs-142" edge="1">
          <mxGeometry width="50" height="50" relative="1" as="geometry">
            <mxPoint x="2460" y="1355.059230638587" as="sourcePoint" />
            <mxPoint x="2460" y="1110" as="targetPoint" />
            <Array as="points" />
          </mxGeometry>
        </mxCell>
        <mxCell id="jX_GD5bZqcwz75eiYxPs-142" value="" style="rounded=0;whiteSpace=wrap;html=1;" parent="WIyWlLk6GJQsqaUBKTNV-1" vertex="1">
          <mxGeometry x="2455" y="1162" width="10" height="50" as="geometry" />
        </mxCell>
        <mxCell id="jX_GD5bZqcwz75eiYxPs-145" value="" style="endArrow=classic;html=1;rounded=0;exitX=1;exitY=1;exitDx=0;exitDy=0;dashed=1;entryX=1.174;entryY=0.952;entryDx=0;entryDy=0;entryPerimeter=0;fontStyle=1" parent="WIyWlLk6GJQsqaUBKTNV-1" target="jX_GD5bZqcwz75eiYxPs-62" edge="1" source="jX_GD5bZqcwz75eiYxPs-142">
          <mxGeometry width="50" height="50" relative="1" as="geometry">
            <mxPoint x="2455" y="1337" as="sourcePoint" />
            <mxPoint x="1196.3810000000003" y="1207.44" as="targetPoint" />
          </mxGeometry>
        </mxCell>
        <mxCell id="jX_GD5bZqcwz75eiYxPs-146" value="15. return result" style="edgeLabel;html=1;align=center;verticalAlign=middle;resizable=0;points=[];" parent="jX_GD5bZqcwz75eiYxPs-145" vertex="1" connectable="0">
          <mxGeometry x="-0.7731" y="-3" relative="1" as="geometry">
            <mxPoint x="-1022" as="offset" />
          </mxGeometry>
        </mxCell>
        <mxCell id="jX_GD5bZqcwz75eiYxPs-149" value="" style="endArrow=classic;html=1;rounded=0;dashed=1;entryX=0.985;entryY=0.891;entryDx=0;entryDy=0;entryPerimeter=0;exitX=-0.219;exitY=0.991;exitDx=0;exitDy=0;exitPerimeter=0;" parent="WIyWlLk6GJQsqaUBKTNV-1" edge="1" source="jX_GD5bZqcwz75eiYxPs-62">
          <mxGeometry width="50" height="50" relative="1" as="geometry">
            <mxPoint x="1170" y="1234" as="sourcePoint" />
            <mxPoint x="694.8499999999999" y="1235.38" as="targetPoint" />
          </mxGeometry>
        </mxCell>
        <mxCell id="jX_GD5bZqcwz75eiYxPs-150" value="16. return add product status" style="edgeLabel;html=1;align=center;verticalAlign=middle;resizable=0;points=[];" parent="jX_GD5bZqcwz75eiYxPs-149" vertex="1" connectable="0">
          <mxGeometry x="-0.2948" y="1" relative="1" as="geometry">
            <mxPoint x="62" as="offset" />
          </mxGeometry>
        </mxCell>
        <mxCell id="jX_GD5bZqcwz75eiYxPs-153" value="" style="endArrow=classic;html=1;rounded=0;dashed=1;" parent="WIyWlLk6GJQsqaUBKTNV-1" edge="1">
          <mxGeometry width="50" height="50" relative="1" as="geometry">
            <mxPoint x="670" y="1254" as="sourcePoint" />
            <mxPoint x="120" y="1254" as="targetPoint" />
          </mxGeometry>
        </mxCell>
        <mxCell id="jX_GD5bZqcwz75eiYxPs-154" value="16.1 send add product fail notification" style="edgeLabel;html=1;align=center;verticalAlign=middle;resizable=0;points=[];" parent="jX_GD5bZqcwz75eiYxPs-153" vertex="1" connectable="0">
          <mxGeometry x="-0.5178" y="-2" relative="1" as="geometry">
            <mxPoint as="offset" />
          </mxGeometry>
        </mxCell>
        <mxCell id="jX_GD5bZqcwz75eiYxPs-155" value="" style="endArrow=classic;html=1;rounded=0;dashed=1;exitX=-0.058;exitY=0.936;exitDx=0;exitDy=0;exitPerimeter=0;" parent="WIyWlLk6GJQsqaUBKTNV-1" edge="1">
          <mxGeometry width="50" height="50" relative="1" as="geometry">
            <mxPoint x="673.4200000000001" y="1358.6000000000001" as="sourcePoint" />
            <mxPoint x="120" y="1359" as="targetPoint" />
          </mxGeometry>
        </mxCell>
        <mxCell id="jX_GD5bZqcwz75eiYxPs-156" value="17 send add product success notification" style="edgeLabel;html=1;align=center;verticalAlign=middle;resizable=0;points=[];" parent="jX_GD5bZqcwz75eiYxPs-155" vertex="1" connectable="0">
          <mxGeometry x="-0.5178" y="-2" relative="1" as="geometry">
            <mxPoint y="3" as="offset" />
          </mxGeometry>
        </mxCell>
        <mxCell id="jX_GD5bZqcwz75eiYxPs-158" value="alt" style="shape=umlFrame;whiteSpace=wrap;html=1;pointerEvents=0;" parent="WIyWlLk6GJQsqaUBKTNV-1" vertex="1">
          <mxGeometry x="40" y="1194" width="620" height="200" as="geometry" />
        </mxCell>
        <mxCell id="jX_GD5bZqcwz75eiYxPs-161" value="[add product fail]" style="text;html=1;strokeColor=none;fillColor=none;align=center;verticalAlign=middle;whiteSpace=wrap;rounded=0;" parent="WIyWlLk6GJQsqaUBKTNV-1" vertex="1">
          <mxGeometry x="120" y="1214" width="130" height="30" as="geometry" />
        </mxCell>
        <mxCell id="jX_GD5bZqcwz75eiYxPs-162" value="[add product success]" style="text;html=1;strokeColor=none;fillColor=none;align=center;verticalAlign=middle;whiteSpace=wrap;rounded=0;" parent="WIyWlLk6GJQsqaUBKTNV-1" vertex="1">
          <mxGeometry x="130" y="1314" width="130" height="30" as="geometry" />
        </mxCell>
        <mxCell id="jX_GD5bZqcwz75eiYxPs-164" value="" style="endArrow=none;dashed=1;html=1;rounded=0;entryX=0.998;entryY=0.539;entryDx=0;entryDy=0;entryPerimeter=0;exitX=-0.002;exitY=0.561;exitDx=0;exitDy=0;exitPerimeter=0;" parent="WIyWlLk6GJQsqaUBKTNV-1" source="jX_GD5bZqcwz75eiYxPs-158" target="jX_GD5bZqcwz75eiYxPs-158" edge="1">
          <mxGeometry width="50" height="50" relative="1" as="geometry">
            <mxPoint x="510" y="1254" as="sourcePoint" />
            <mxPoint x="560" y="1204" as="targetPoint" />
          </mxGeometry>
        </mxCell>
      </root>
    </mxGraphModel>
  </diagram>
</mxfile>
